<svg id="Capa_1" enable-background="new 0 0 512 512" height="512" viewBox="0 0 512 512" width="512"
    xmlns="http://www.w3.org/2000/svg">
    <g>
        <path d="m170 332h-30c-8.284 0-15 6.716-15 15s6.716 15 15 15h30c8.284 0 15-6.716 15-15s-6.716-15-15-15z" />
        <path
            d="m266.414 196v-6.106c15.415-4.155 25.292-17.423 27.493-30.514 2.87-17.073-6.396-32.501-23.058-38.391-1.461-.516-2.947-1.052-4.435-1.601v-27.955c2.511 1.091 3.958 2.308 4.093 2.424l-.115-.104.016-.017c1.784 1.65 4.163 2.666 6.784 2.666 5.523 0 10-4.477 10-10 0-3.146-1.455-5.949-3.726-7.782-3.401-2.962-9.366-6.458-17.051-8.06v-4.56c0-5.523-4.477-10-10-10s-10 4.477-10 10v5.239c-.407.111-.814.22-1.224.344-11.263 3.393-19.672 13-21.947 25.072-2.092 11.1 1.526 21.852 9.443 28.062 3.593 2.818 7.954 5.404 13.728 8.078v37.916c-3.702-.651-6.69-2.063-11.251-5.047-4.622-3.023-10.819-1.729-13.843 2.895-3.023 4.622-1.728 10.819 2.895 13.843 8.412 5.503 14.586 7.686 22.199 8.456v5.142c0 5.523 4.477 10 10 10 5.522 0 9.999-4.477 9.999-10zm0-55.219c8.567 4.177 8.33 11.951 7.77 15.284-.755 4.49-3.385 9.199-7.77 12.157zm-20-30.787c-.483-.335-.95-.672-1.385-1.013-1.989-1.56-2.826-4.944-2.133-8.622.432-2.293 1.557-4.885 3.518-6.873z" />
        <path
            d="m507.09 363.173-140-127.272c-5.721-5.201-14.458-5.201-20.18 0l-40.41 36.736-16.602-15.093c55.854-14.976 97.102-66.029 97.102-126.544 0-72.234-58.766-131-131-131s-131 58.766-131 131c0 60.514 41.248 111.568 97.102 126.544l-16.602 15.093-40.41-36.736c-5.721-5.201-14.459-5.201-20.18 0l-140 127.273c-6.13 5.573-6.582 15.06-1.009 21.189 5.572 6.129 15.059 6.58 21.189 1.009l4.91-4.464v116.092c0 8.284 6.716 15 15 15h422c8.284 0 15-6.716 15-15v-116.092l4.91 4.464c2.874 2.613 6.485 3.901 10.085 3.901 4.079 0 8.144-1.654 11.104-4.91 5.573-6.13 5.121-15.617-1.009-21.19zm-352.09-232.173c0-55.691 45.309-101 101-101s101 45.309 101 101-45.309 101-101 101-101-45.309-101-101zm15 351h-30v-60h30zm80 0h-50v-75c0-8.284-6.716-15-15-15h-60c-8.284 0-15 6.716-15 15v75h-50v-128.364l95-86.364 40.474 36.795c.01.009.019.018.029.026l54.497 49.543zm101 0h-71v-101.092l4.91 4.464c2.874 2.613 6.485 3.901 10.085 3.901 4.079 0 8.144-1.654 11.104-4.91 5.573-6.13 5.121-15.617-1.009-21.189l-77.291-70.264 28.201-25.638 95 86.363zm101 0h-71v-101.092l4.91 4.464c2.874 2.613 6.485 3.901 10.085 3.901 4.079 0 8.144-1.654 11.104-4.91 5.573-6.129 5.121-15.616-1.009-21.189l-77.291-70.264 28.201-25.638 95 86.363z" />
    </g>
</svg>