<svg id="Capa_1" enable-background="new 0 0 512 512" height="512" viewBox="0 0 512 512" width="512" xmlns="http://www.w3.org/2000/svg"><g><path d="m510.416 249.292-48.944-97.889c-9.376-18.753-28.226-30.403-49.194-30.403h-60.278v-25c0-30.327-24.673-55-55-55h-242c-30.327 0-55 24.673-55 55v320c0 8.284 6.716 15 15 15h37.096c6.547 23.057 27.777 40 52.904 40s46.356-16.943 52.904-40h196.192c6.547 23.057 27.777 40 52.904 40s46.356-16.943 52.904-40h37.096c8.284 0 15-6.716 15-15v-160c0-2.329-.542-4.625-1.584-6.708zm-98.138-98.292c9.53 0 18.099 5.295 22.361 13.819l38.09 76.181h-26.459l-15.854-31.708c-3.704-7.41-12.713-10.414-20.124-6.708-7.41 3.705-10.413 12.715-6.708 20.125l9.146 18.291h-60.73v-90zm-307.278 290c-13.785 0-25-11.215-25-25s11.215-25 25-25 25 11.215 25 25-11.215 25-25 25zm0-80c-25.127 0-46.356 16.943-52.904 40h-22.096v-305c0-13.785 11.215-25 25-25h242c13.785 0 25 11.215 25 25v305h-164.096c-6.548-23.057-27.777-40-52.904-40zm302 80c-13.785 0-25-11.215-25-25s11.215-25 25-25 25 11.215 25 25-11.215 25-25 25zm52.904-40c-6.547-23.057-27.777-40-52.904-40s-46.356 16.943-52.904 40h-2.096v-130h130v30h-25c-8.284 0-15 6.716-15 15s6.716 15 15 15h25v70z"/><path d="m246 321c8.284 0 15-6.716 15-15v-87.387l.238.204c2.829 2.425 6.3 3.612 9.755 3.612 4.227 0 8.429-1.778 11.396-5.239 5.392-6.29 4.663-15.759-1.627-21.15l-95-81.429c-5.617-4.815-13.906-4.815-19.523 0l-95 81.429c-6.29 5.391-7.019 14.861-1.627 21.15 5.392 6.291 14.862 7.019 21.15 1.627l.238-.204v87.387c0 8.284 6.716 15 15 15zm-125-128.101 55-47.143 55 47.143v98.101h-40v-25c0-8.284-6.716-15-15-15s-15 6.716-15 15v25h-40z"/><path d="m166 221h20c8.284 0 15-6.716 15-15s-6.716-15-15-15h-20c-8.284 0-15 6.716-15 15s6.716 15 15 15z"/></g></svg>