<svg id="Capa_1" enable-background="new 0 0 512.049 512.049" height="512" viewBox="0 0 512.049 512.049" width="512" xmlns="http://www.w3.org/2000/svg"><g><path d="m478.182 66.264h-71.59c-4.143 0-7.5 3.357-7.5 7.5s3.357 7.5 7.5 7.5h71.59c10.295 0 18.67 8.375 18.67 18.67v182.545c0 10.295-8.375 18.67-18.67 18.67h-444.316c-10.294 0-18.669-8.375-18.669-18.67v-182.545c0-10.295 8.375-18.67 18.669-18.67h340.763c4.143 0 7.5-3.357 7.5-7.5s-3.357-7.5-7.5-7.5h-83.319v-47.029c0-10.606-8.629-19.235-19.236-19.235h-32.101c-10.606 0-19.235 8.629-19.235 19.235v47.028h-186.872c-18.565 0-33.669 15.104-33.669 33.67v182.545c0 18.565 15.104 33.67 33.669 33.67h150.003v26.028c0 11.224 9.131 20.354 20.354 20.354h.823v20.066c0 8.8 6.979 15.98 15.691 16.345v105.606c0 4.143 3.357 7.5 7.5 7.5s7.5-3.357 7.5-7.5v-105.569h40.571v105.571c0 4.143 3.357 7.5 7.5 7.5s7.5-3.357 7.5-7.5v-105.606c8.711-.365 15.69-7.545 15.69-16.345v-20.066h.824c11.224 0 20.354-9.131 20.354-20.354v-26.028h150.003c18.565 0 33.67-15.104 33.67-33.67v-182.546c.003-18.566-15.102-33.67-33.667-33.67zm-242.444-47.029c0-2.335 1.9-4.235 4.235-4.235h32.101c2.335 0 4.235 1.9 4.235 4.235v47.028h-40.571zm77.441 322.942c0 2.952-2.402 5.354-5.354 5.354h-8.325-34.287c-4.143 0-7.5 3.357-7.5 7.5s3.357 7.5 7.5 7.5h26.787v20.066c0 .761-.618 1.38-1.379 1.38h-69.194c-.761 0-1.38-.619-1.38-1.38v-20.066h13.203c4.143 0 7.5-3.357 7.5-7.5s-3.357-7.5-7.5-7.5h-20.703-8.323c-2.952 0-5.354-2.402-5.354-5.354v-26.028h114.31v26.028z"/><path d="m37.697 200.688c-4.143 0-7.5 3.357-7.5 7.5v70.46c0 4.143 3.357 7.5 7.5 7.5h436.654c4.143 0 7.5-3.357 7.5-7.5v-174.884c0-4.143-3.357-7.5-7.5-7.5h-436.654c-4.143 0-7.5 3.357-7.5 7.5v72.461c0 4.143 3.357 7.5 7.5 7.5s7.5-3.357 7.5-7.5v-64.961h421.654v159.884h-421.654v-62.96c0-4.143-3.357-7.5-7.5-7.5z"/><path d="m141.938 223.73c-4.143 0-7.5 3.357-7.5 7.5s3.357 7.5 7.5 7.5h35.277c6.608 0 11.985-5.377 11.985-11.985v-30.237c0-6.608-5.377-11.985-11.985-11.985h-27.777v-23.841h32.263c4.143 0 7.5-3.357 7.5-7.5s-3.357-7.5-7.5-7.5h-35.277c-6.608 0-11.985 5.377-11.985 11.985v29.87c0 6.608 5.377 11.985 11.985 11.985h27.777v24.208z"/><path d="m241.262 238.73c10.271 0 18.627-8.356 18.627-18.627v-55.795c0-10.271-8.356-18.627-18.627-18.627h-16.023c-10.271 0-18.627 8.356-18.627 18.627v55.795c0 10.271 8.356 18.627 18.627 18.627zm-19.651-18.626v-55.795c0-2 1.627-3.627 3.627-3.627h16.023c2 0 3.627 1.627 3.627 3.627v55.795c0 2-1.627 3.627-3.627 3.627h-16.023c-2-.001-3.627-1.627-3.627-3.627z"/><path d="m283.429 145.682c-4.143 0-7.5 3.357-7.5 7.5v78.049c0 4.143 3.357 7.5 7.5 7.5h23.921c4.143 0 7.5-3.357 7.5-7.5s-3.357-7.5-7.5-7.5h-16.421v-70.549c0-4.143-3.358-7.5-7.5-7.5z"/><path d="m352.986 238.73c14.277 0 25.894-11.616 25.894-25.894v-41.262c0-14.277-11.616-25.894-25.894-25.894h-18.484c-4.143 0-7.5 3.357-7.5 7.5v78.049c0 4.143 3.357 7.5 7.5 7.5h18.484zm-10.984-78.048h10.984c6.007 0 10.894 4.887 10.894 10.894v41.262c0 6.007-4.887 10.894-10.894 10.894h-10.984z"/></g></svg>