<svg id="Capa_1" enable-background="new 0 0 512 512" height="512" viewBox="0 0 512 512" width="512" xmlns="http://www.w3.org/2000/svg"><g><path d="m481 192.235v-15.235c0-19.555-12.541-36.228-30-42.42v-104.58h46c8.284 0 15-6.716 15-15s-6.716-15-15-15h-482c-8.284 0-15 6.716-15 15s6.716 15 15 15h46v104.58c-17.459 6.192-30 22.865-30 42.42v15.235c-17.422 1.993-31 16.819-31 34.765v200c0 19.299 15.701 35 35 35h94.524c34.409 32.293 79.074 50 126.476 50s92.067-17.707 126.476-50h94.524c19.299 0 35-15.701 35-35v-200c0-17.946-13.578-32.772-31-34.765zm-45-30.235c8.271 0 15 6.729 15 15v15h-30v-15c0-8.271 6.729-15 15-15zm-345-132h330v104.58c-17.459 6.192-30 22.865-30 42.42v15h-8.524c-34.409-32.293-79.074-50-126.476-50s-92.067 17.707-126.476 50h-8.524v-15c0-19.555-12.541-36.228-30-42.42zm-30 147c0-8.271 6.729-15 15-15s15 6.729 15 15v15h-30zm421 250c0 2.757-2.243 5-5 5h-100.603c-3.987 0-7.81 1.587-10.624 4.411-29.302 29.399-68.287 45.589-109.773 45.589s-80.471-16.19-109.773-45.589c-2.814-2.824-6.637-4.411-10.624-4.411h-100.603c-2.757 0-5-2.243-5-5v-200c0-2.757 2.243-5 5-5h100.603c3.987 0 7.81-1.587 10.624-4.411 29.302-29.399 68.287-45.589 109.773-45.589s80.471 16.19 109.773 45.589c2.814 2.824 6.637 4.411 10.624 4.411h100.603c2.757 0 5 2.243 5 5z"/><path d="m240.301 273.108c-.052-.138-.106-.275-.162-.411-2.674-6.5-8.94-10.697-15.968-10.697-.006 0-.013 0-.019 0-7.035.008-13.3 4.22-15.963 10.731-.046.111-.09.225-.133.338l-37.55 98.592c-2.949 7.742.937 16.408 8.679 19.356 7.741 2.95 16.408-.938 19.356-8.679l5.672-14.894h39.624l5.604 14.851c2.267 6.007 7.974 9.709 14.036 9.708 1.76 0 3.55-.312 5.294-.97 7.75-2.925 11.663-11.58 8.737-19.33zm-24.661 64.337 8.477-22.257 8.4 22.257z"/><path d="m346.51 361.916c-.028 0-.058 0-.086 0-6.784.038-13.934.066-19.933.078v-84.994c0-8.284-6.716-15-15-15s-15 6.716-15 15v99.916c0 7.307 5.264 13.55 12.465 14.784 1.08.186 1.796.309 12.966.309 5.387 0 13.206-.029 24.669-.093 8.284-.047 14.962-6.8 14.916-15.084-.045-8.256-6.752-14.916-14.997-14.916z"/><path d="m434 292c8.284 0 15-6.716 15-15s-6.716-15-15-15h-42.136c-8.284 0-15 6.716-15 15v100c0 8.284 6.716 15 15 15h42.136c8.284 0 15-6.716 15-15s-6.716-15-15-15h-27.136v-20h24.029c8.284 0 15-6.716 15-15s-6.716-15-15-15h-24.029v-20z"/><path d="m126.722 313.715c-11.847-4.369-22.906-9.119-26.745-10.795-1.441-1.325-1.461-3.039-1.321-4.013.185-1.29 1.16-4.455 6.201-5.974 12.899-3.885 25.108 5.817 25.23 5.916l-.105-.087.012-.014c2.611 2.2 5.979 3.531 9.66 3.531 8.284 0 15-6.716 15-15 0-4.785-2.249-9.037-5.738-11.784-3.199-2.561-25.669-19.436-52.712-11.288-14.747 4.441-25.187 16.104-27.244 30.436-1.939 13.506 3.919 26.501 15.288 33.912.663.432 1.358.811 2.08 1.133.582.26 14.426 6.423 30.013 12.172 6.1 2.25 12.328 6.276 11.515 10.829-.67 3.755-5.904 9.31-15.008 9.31-9.246 0-18.118-3.699-23.732-9.896-5.563-6.14-15.049-6.606-21.188-1.043s-6.606 15.049-1.043 21.188c11.374 12.553 28.127 19.752 45.963 19.752 22.287 0 41.019-14.314 44.541-34.036 2.667-14.94-3.989-34.408-30.667-44.249z"/></g></svg>